<?xml version="1.0" encoding="UTF-8" standalone="no"?>
<svg width="30px" height="25px" viewBox="0 0 30 25" version="1.1" xmlns="http://www.w3.org/2000/svg" xmlns:xlink="http://www.w3.org/1999/xlink">
    <!-- Generator: Sketch 46.1 (44463) - http://www.bohemiancoding.com/sketch -->
    <title>social-16px_logo-twitter</title>
    <desc>Created with Sketch.</desc>
    <defs></defs>
    <g id="Page-1" stroke="none" stroke-width="1" fill="none" fill-rule="evenodd">
        <g id="Home" transform="translate(-1062.000000, -3583.000000)" stroke="#FC5057" fill="#FC5057">
            <g id="social-16px_logo-twitter" transform="translate(1062.000000, 3583.000000)">
                <path d="M28.5714286,3.57142857 C27.5,4.10714286 26.4285714,4.28571429 25.1785714,4.46428571 C26.4285714,3.75 27.3214286,2.67857143 27.6785714,1.25 C26.6071429,1.96428571 25.3571429,2.32142857 23.9285714,2.67857143 C22.8571429,1.60714286 21.25,0.892857143 19.6428571,0.892857143 C16.6071429,0.892857143 13.9285714,3.57142857 13.9285714,6.78571429 C13.9285714,7.32142857 13.9285714,7.67857143 14.1071429,8.03571429 C9.28571429,7.85714286 4.82142857,5.53571429 1.96428571,1.96428571 C1.42857143,2.85714286 1.25,3.75 1.25,5 C1.25,6.96428571 2.32142857,8.75 3.92857143,9.82142857 C3.03571429,9.82142857 2.14285714,9.46428571 1.25,9.10714286 L1.25,9.10714286 C1.25,11.9642857 3.21428571,14.2857143 5.89285714,14.8214286 C5.35714286,15 4.82142857,15 4.28571429,15 C3.92857143,15 3.57142857,15 3.21428571,14.8214286 C3.92857143,17.1428571 6.07142857,18.9285714 8.75,18.9285714 C6.78571429,20.5357143 4.28571429,21.4285714 1.42857143,21.4285714 L0,21.4285714 C2.67857143,23.0357143 5.71428571,24.1071429 8.92857143,24.1071429 C19.6428571,24.1071429 25.5357143,15.1785714 25.5357143,7.5 L25.5357143,6.78571429 C26.7857143,5.89285714 27.8571429,4.82142857 28.5714286,3.57142857 Z" id="Shape"></path>
            </g>
        </g>
    </g>
</svg>